<svg xmlns="http://www.w3.org/2000/svg" width="400" height="200" viewBox="0 0 400 200">
  <defs>
    <linearGradient id="bg" x1="0%" y1="0%" x2="100%" y2="100%">
      <stop offset="0%" style="stop-color:#f8f9fc" />
      <stop offset="100%" style="stop-color:#ede6ff" />
    </linearGradient>
  </defs>
  <rect width="400" height="200" fill="url(#bg)"/>
  <line x1="40" y1="175" x2="375" y2="175" stroke="#e0d6f5" stroke-width="1"/>
  <polyline points="50,130 100,110 150,90 200,70 250,85 300,60 350,45" fill="none" stroke="#863bff" stroke-width="2.5" stroke-linejoin="round"/>
  <polyline points="50,150 100,140 150,130 200,115 250,120 300,100 350,80" fill="none" stroke="#47bfff" stroke-width="2.5" stroke-linejoin="round"/>
  <polyline points="50,160 100,155 150,150 200,145 250,135 300,140 350,125" fill="none" stroke="#863bff" stroke-width="2" stroke-dasharray="4,3" opacity="0.5" stroke-linejoin="round"/>
  <circle cx="50" cy="130" r="3" fill="#863bff"/>
  <circle cx="200" cy="70" r="3" fill="#863bff"/>
  <circle cx="350" cy="45" r="3" fill="#863bff"/>
  <circle cx="50" cy="150" r="3" fill="#47bfff"/>
  <circle cx="200" cy="115" r="3" fill="#47bfff"/>
  <circle cx="350" cy="80" r="3" fill="#47bfff"/>
</svg>