<svg xmlns="http://www.w3.org/2000/svg" width="400" height="200" viewBox="0 0 400 200">
  <defs>
    <linearGradient id="bg" x1="0%" y1="0%" x2="100%" y2="100%">
      <stop offset="0%" style="stop-color:#f8f9fc" />
      <stop offset="100%" style="stop-color:#ede6ff" />
    </linearGradient>
  </defs>
  <rect width="400" height="200" fill="url(#bg)"/>
  <rect x="40" y="20" width="42" height="35" rx="4" fill="#863bff" opacity="0.9"/>
  <rect x="88" y="20" width="42" height="35" rx="4" fill="#863bff" opacity="0.6"/>
  <rect x="136" y="20" width="42" height="35" rx="4" fill="#47bfff" opacity="0.4"/>
  <rect x="184" y="20" width="42" height="35" rx="4" fill="#863bff" opacity="0.3"/>
  <rect x="232" y="20" width="42" height="35" rx="4" fill="#47bfff" opacity="0.7"/>
  <rect x="280" y="20" width="42" height="35" rx="4" fill="#863bff" opacity="0.5"/>
  <rect x="328" y="20" width="42" height="35" rx="4" fill="#47bfff" opacity="0.2"/>
  <rect x="40" y="61" width="42" height="35" rx="4" fill="#47bfff" opacity="0.5"/>
  <rect x="88" y="61" width="42" height="35" rx="4" fill="#863bff" opacity="0.8"/>
  <rect x="136" y="61" width="42" height="35" rx="4" fill="#863bff" opacity="0.4"/>
  <rect x="184" y="61" width="42" height="35" rx="4" fill="#47bfff" opacity="0.9"/>
  <rect x="232" y="61" width="42" height="35" rx="4" fill="#863bff" opacity="0.2"/>
  <rect x="280" y="61" width="42" height="35" rx="4" fill="#47bfff" opacity="0.6"/>
  <rect x="328" y="61" width="42" height="35" rx="4" fill="#863bff" opacity="0.7"/>
  <rect x="40" y="102" width="42" height="35" rx="4" fill="#863bff" opacity="0.2"/>
  <rect x="88" y="102" width="42" height="35" rx="4" fill="#47bfff" opacity="0.3"/>
  <rect x="136" y="102" width="42" height="35" rx="4" fill="#863bff" opacity="0.7"/>
  <rect x="184" y="102" width="42" height="35" rx="4" fill="#863bff" opacity="0.5"/>
  <rect x="232" y="102" width="42" height="35" rx="4" fill="#47bfff" opacity="0.8"/>
  <rect x="280" y="102" width="42" height="35" rx="4" fill="#863bff" opacity="0.9"/>
  <rect x="328" y="102" width="42" height="35" rx="4" fill="#47bfff" opacity="0.4"/>
  <rect x="40" y="143" width="42" height="35" rx="4" fill="#47bfff" opacity="0.8"/>
  <rect x="88" y="143" width="42" height="35" rx="4" fill="#863bff" opacity="0.3"/>
  <rect x="136" y="143" width="42" height="35" rx="4" fill="#47bfff" opacity="0.6"/>
  <rect x="184" y="143" width="42" height="35" rx="4" fill="#47bfff" opacity="0.2"/>
  <rect x="232" y="143" width="42" height="35" rx="4" fill="#863bff" opacity="0.6"/>
  <rect x="280" y="143" width="42" height="35" rx="4" fill="#47bfff" opacity="0.5"/>
  <rect x="328" y="143" width="42" height="35" rx="4" fill="#863bff" opacity="0.8"/>
</svg>