<svg xmlns="http://www.w3.org/2000/svg" width="400" height="200" viewBox="0 0 400 200">
  <defs>
    <linearGradient id="bg" x1="0%" y1="0%" x2="100%" y2="100%">
      <stop offset="0%" style="stop-color:#f8f9fc" />
      <stop offset="100%" style="stop-color:#ede6ff" />
    </linearGradient>
  </defs>
  <rect width="400" height="200" fill="url(#bg)"/>
  <line x1="40" y1="175" x2="375" y2="175" stroke="#e0d6f5" stroke-width="1"/>
  <rect x="50" y="100" width="35" height="75" rx="3" fill="#863bff" opacity="0.8"/>
  <rect x="50" y="70" width="35" height="30" rx="3" fill="#47bfff" opacity="0.7"/>
  <rect x="105" y="85" width="35" height="90" rx="3" fill="#863bff" opacity="0.8"/>
  <rect x="105" y="50" width="35" height="35" rx="3" fill="#47bfff" opacity="0.7"/>
  <rect x="160" y="75" width="35" height="100" rx="3" fill="#863bff" opacity="0.8"/>
  <rect x="160" y="35" width="35" height="40" rx="3" fill="#47bfff" opacity="0.7"/>
  <rect x="215" y="65" width="35" height="110" rx="3" fill="#863bff" opacity="0.8"/>
  <rect x="215" y="25" width="35" height="40" rx="3" fill="#47bfff" opacity="0.7"/>
  <rect x="270" y="55" width="35" height="120" rx="3" fill="#863bff" opacity="0.8"/>
  <rect x="270" y="15" width="35" height="40" rx="3" fill="#47bfff" opacity="0.7"/>
  <rect x="325" y="50" width="35" height="125" rx="3" fill="#863bff" opacity="0.8"/>
  <rect x="325" y="10" width="35" height="40" rx="3" fill="#47bfff" opacity="0.7"/>
</svg>